
<svg aria-hidden="true" style="position: absolute; width: 0; height: 0; overflow: hidden;" version="1.1" xmlns="http://www.w3.org/2000/svg" xmlns:xlink="http://www.w3.org/1999/xlink">
<defs>

<symbol id="link" viewBox="0 0 32 32">
<path d="M19.182 20.066c-1.936 0-3.755-0.754-5.124-2.123-0.768-0.767-1.341-1.671-1.703-2.688-0.009-0.025-0.014-0.054-0.014-0.084 0-0.108 0.068-0.2 0.164-0.235l0.002-0.001c0.025-0.009 0.054-0.014 0.084-0.014 0.108 0 0.2 0.068 0.235 0.164l0.001 0.002c0.337 0.946 0.871 1.788 1.585 2.502 1.274 1.274 2.969 1.976 4.771 1.976s3.496-0.702 4.771-1.976l4.24-4.24c1.274-1.274 1.976-2.969 1.976-4.771s-0.701-3.497-1.976-4.771c-1.275-1.275-2.969-1.977-4.771-1.977s-3.496 0.702-4.77 1.977l-4.241 4.24c-0.588 0.588-1.056 1.267-1.391 2.018-0.056 0.126-0.204 0.184-0.33 0.126-0.088-0.040-0.148-0.127-0.148-0.228 0-0.037 0.008-0.072 0.022-0.104l-0.001 0.002c0.36-0.807 0.863-1.537 1.494-2.168l4.241-4.24c1.369-1.369 3.188-2.123 5.124-2.123s3.756 0.754 5.125 2.123c2.825 2.825 2.825 7.423-0 10.248l-4.24 4.24c-1.369 1.369-3.189 2.123-5.125 2.123z"></path>
<path d="M18.122 21.127c-1.936 0-3.755-0.754-5.124-2.123-0.899-0.9-1.548-2.022-1.876-3.245-0.005-0.019-0.008-0.042-0.008-0.065 0-0.138 0.112-0.25 0.25-0.25 0.115 0 0.212 0.078 0.241 0.183l0 0.002c0.305 1.139 0.909 2.184 1.747 3.021 1.274 1.274 2.968 1.976 4.771 1.976s3.496-0.702 4.771-1.976l4.241-4.241c0.045-0.045 0.108-0.073 0.177-0.073s0.131 0.028 0.177 0.073v0c0.045 0.045 0.073 0.108 0.073 0.177s-0.028 0.131-0.073 0.177l-4.241 4.241c-1.369 1.369-3.189 2.123-5.125 2.123z"></path>
<path d="M19.182 18.064c-1.344 0-2.688-0.512-3.71-1.534-0.124-0.124-0.242-0.253-0.353-0.388l-0.007-0.009c-0.035-0.043-0.056-0.098-0.056-0.158 0-0.078 0.036-0.147 0.091-0.193l0-0c0.043-0.035 0.098-0.057 0.158-0.057 0.078 0 0.147 0.036 0.193 0.091l0 0c0.107 0.131 0.214 0.249 0.326 0.361v0c0.897 0.896 2.089 1.39 3.358 1.39s2.46-0.493 3.357-1.39l4.241-4.241c0.897-0.897 1.39-2.089 1.39-3.357s-0.494-2.461-1.39-3.357c-1.852-1.851-4.864-1.851-6.715 0l-4.241 4.24c-0.22 0.221-0.419 0.462-0.594 0.722l-0.011 0.017c-0.076 0.115-0.232 0.147-0.346 0.070-0.068-0.045-0.112-0.122-0.112-0.208 0-0.051 0.016-0.099 0.042-0.139l-0.001 0.001c0.205-0.306 0.424-0.573 0.668-0.817l4.241-4.24c2.046-2.046 5.375-2.046 7.421 0 0.991 0.991 1.536 2.309 1.536 3.71s-0.546 2.72-1.537 3.71l-4.241 4.24c-1.023 1.023-2.367 1.534-3.711 1.534z"></path>
<path d="M25.897 13.423c-0 0-0 0-0 0-0.138 0-0.25-0.112-0.25-0.25 0-0.069 0.028-0.132 0.073-0.177v0c1.851-1.851 1.851-4.864 0-6.715s-4.863-1.851-6.714 0c-0.045 0.045-0.108 0.073-0.177 0.073s-0.131-0.028-0.177-0.073v0c-0.045-0.045-0.073-0.108-0.073-0.177s0.028-0.131 0.073-0.177v0c2.046-2.046 5.375-2.046 7.421 0s2.046 5.375 0 7.421c-0.045 0.045-0.107 0.073-0.176 0.073-0 0-0 0-0 0h0zM9.641 29.608h-0c-1.936 0-3.755-0.754-5.124-2.123s-2.123-3.188-2.123-5.124c0-1.936 0.754-3.755 2.123-5.124l4.241-4.24c2.825-2.826 7.422-2.826 10.249-0.001 0.9 0.901 1.549 2.024 1.876 3.246 0.005 0.019 0.009 0.042 0.009 0.065 0 0.115-0.078 0.212-0.183 0.241l-0.002 0c-0.133 0.033-0.27-0.043-0.306-0.177-0.304-1.138-0.908-2.183-1.746-3.022-2.631-2.63-6.911-2.63-9.542 0.001l-4.241 4.24c-1.274 1.274-1.976 2.969-1.976 4.771s0.702 3.496 1.976 4.77c1.274 1.275 2.968 1.977 4.771 1.977s3.496-0.702 4.771-1.976l4.241-4.24c0.336-0.336 0.636-0.707 0.897-1.106l0.016-0.026c0.045-0.070 0.122-0.116 0.21-0.116 0.050 0 0.097 0.015 0.136 0.040l-0.001-0.001c0.070 0.045 0.115 0.122 0.115 0.21 0 0.050-0.015 0.097-0.040 0.136l0.001-0.001c-0.296 0.458-0.619 0.856-0.98 1.217l-4.241 4.24c-1.369 1.369-3.189 2.123-5.124 2.123z"></path>
<path d="M8.581 30.668c-1.936 0-3.755-0.754-5.124-2.123s-2.123-3.189-2.123-5.124c0-1.936 0.754-3.755 2.123-5.124l4.241-4.24c0.045-0.045 0.108-0.073 0.177-0.073s0.131 0.028 0.177 0.073v0c0.045 0.045 0.073 0.108 0.073 0.177s-0.028 0.131-0.073 0.177l-4.241 4.24c-1.274 1.274-1.976 2.969-1.976 4.771s0.702 3.496 1.977 4.771c1.274 1.274 2.968 1.976 4.771 1.976s3.496-0.702 4.771-1.976l4.241-4.24c0.045-0.045 0.108-0.073 0.177-0.073s0.131 0.028 0.177 0.073v0c0.045 0.045 0.073 0.108 0.073 0.177s-0.028 0.131-0.073 0.177l-4.241 4.24c-1.369 1.369-3.188 2.123-5.124 2.123z"></path>
<path d="M9.641 27.606c-1.344 0-2.688-0.512-3.71-1.535-2.046-2.046-2.046-5.375 0-7.421l4.241-4.24c0.991-0.991 2.309-1.537 3.71-1.537h0c1.402 0 2.72 0.546 3.711 1.537 0.516 0.517 0.913 1.121 1.177 1.796 0.011 0.027 0.017 0.058 0.017 0.091 0 0.105-0.065 0.195-0.157 0.232l-0.002 0.001c-0.128 0.050-0.274-0.013-0.324-0.142-0.239-0.61-0.597-1.157-1.064-1.625-0.897-0.897-2.089-1.39-3.357-1.39s-2.461 0.494-3.357 1.39l-4.241 4.24c-0.897 0.897-1.39 2.089-1.391 3.357s0.494 2.461 1.391 3.357c0.897 0.897 2.089 1.39 3.357 1.39s2.46-0.494 3.357-1.39l3.888-3.887c0.045-0.045 0.108-0.073 0.177-0.073s0.131 0.028 0.177 0.073v0c0.045 0.045 0.073 0.108 0.073 0.177s-0.028 0.131-0.073 0.177l-3.888 3.887c-1.023 1.023-2.367 1.535-3.71 1.535z"></path>
<path d="M16.698 16.277c-0 0-0 0-0.001 0-0.078 0-0.147-0.036-0.193-0.092l-0-0c-0.107-0.131-0.214-0.249-0.326-0.361l0 0c-1.851-1.851-4.864-1.851-6.714 0-0.045 0.045-0.108 0.073-0.177 0.073s-0.131-0.028-0.177-0.073v0c-0.045-0.045-0.073-0.108-0.073-0.177s0.028-0.131 0.073-0.177v0c2.046-2.046 5.375-2.046 7.421 0 0.124 0.124 0.241 0.254 0.352 0.389l0.007 0.009c0.035 0.043 0.056 0.098 0.056 0.158 0 0.138-0.112 0.25-0.25 0.25h-0z"></path>
<path d="M24.056 21.481c-0.685 0-1.494-0.129-2.402-0.502-0.092-0.039-0.155-0.128-0.155-0.231 0-0.034 0.007-0.067 0.019-0.097l-0.001 0.002c0.053-0.128 0.199-0.188 0.326-0.136 2.614 1.078 4.336-0.070 4.353-0.081 0.038-0.025 0.085-0.040 0.136-0.040 0.138 0 0.25 0.112 0.25 0.25 0 0.083-0.040 0.156-0.102 0.202l-0.001 0c-0.054 0.037-0.949 0.634-2.423 0.634z"></path>
<path d="M25.314 22.626c-0.756 0-1.418-0.484-1.649-1.204-0.292-0.909 0.209-1.887 1.119-2.18 0.434-0.139 1.338-0.244 2.104-0.244 1.237 0 1.941 0.241 2.093 0.715 0.346 1.075-2.539 2.636-3.135 2.828-0.159 0.053-0.341 0.084-0.531 0.084h-0zM26.887 19.498c-0.791 0-1.613 0.112-1.951 0.22-0.647 0.208-1.004 0.904-0.796 1.551 0.204 0.634 0.911 1.003 1.551 0.797 0.95-0.306 2.967-1.721 2.813-2.2-0.057-0.178-0.587-0.368-1.617-0.368z"></path>
<path d="M15.545 31.993c-0.11 0-0.22-0.014-0.329-0.041-0.344-0.087-0.633-0.303-0.814-0.608-0.313-0.527-0.139-1.21 0.387-1.524 0.137-0.083 0.302-0.133 0.479-0.133 0.083 0 0.164 0.011 0.24 0.031l-0.007-0.001c0.246 0.064 0.449 0.219 0.573 0.426l0.002 0.004c0.022 0.036 0.035 0.080 0.035 0.127 0 0.091-0.049 0.171-0.121 0.214l-0.001 0.001c-0.036 0.022-0.080 0.035-0.127 0.035-0.091 0-0.171-0.048-0.214-0.121l-0.001-0.001c-0.059-0.099-0.154-0.171-0.266-0.2l-0.003-0.001c-0.033-0.009-0.071-0.014-0.11-0.014-0.083 0-0.16 0.023-0.226 0.064l0.002-0.001c-0.29 0.172-0.385 0.549-0.213 0.838 0.111 0.187 0.29 0.323 0.502 0.378l0.006 0.001c0.214 0.054 0.437 0.022 0.626-0.091 0.52-0.309 0.691-0.983 0.382-1.503-0.222-0.374-0.628-0.653-1.085-0.747-0.329-0.066-0.834-0.067-1.362 0.319-0.040 0.029-0.090 0.046-0.144 0.046-0.138 0-0.25-0.112-0.25-0.25 0-0.081 0.039-0.153 0.098-0.199l0.001-0c0.527-0.386 1.151-0.528 1.757-0.405 0.592 0.121 1.121 0.488 1.414 0.98 0.45 0.757 0.2 1.739-0.556 2.189-0.193 0.117-0.426 0.187-0.676 0.187h-0z"></path>
<path d="M17.483 3.286c-0.191 0-0.382-0.027-0.569-0.082-0.551-0.162-1.021-0.55-1.259-1.039-0.367-0.751-0.053-1.662 0.699-2.029 0.304-0.148 0.647-0.17 0.966-0.058 0.32 0.11 0.577 0.338 0.725 0.642 0.256 0.526 0.036 1.162-0.49 1.419-0.445 0.216-0.985 0.031-1.203-0.414-0.016-0.032-0.025-0.070-0.025-0.11 0-0.138 0.112-0.25 0.25-0.25 0.098 0 0.183 0.056 0.224 0.139l0.001 0.001c0.097 0.198 0.336 0.282 0.535 0.184 0.278-0.135 0.394-0.472 0.259-0.75-0.089-0.182-0.244-0.321-0.433-0.387l-0.005-0.002c-0.075-0.027-0.16-0.042-0.25-0.042-0.122 0-0.237 0.028-0.339 0.079l0.004-0.002c-0.505 0.246-0.715 0.857-0.469 1.361 0.177 0.365 0.533 0.656 0.95 0.778 0.301 0.089 0.771 0.128 1.292-0.191 0.037-0.023 0.082-0.037 0.13-0.037 0.090 0 0.169 0.048 0.213 0.119l0.001 0.001c0.023 0.037 0.037 0.082 0.037 0.13 0 0.090-0.048 0.169-0.119 0.213l-0.001 0.001c-0.353 0.216-0.739 0.326-1.124 0.326z"></path>
<path d="M3.738 15.997c-1.151 0-2.103-0.716-2.213-1.666-0.099-0.86 0.402-4.402 1.82-4.568 1.414-0.164 2.72 3.203 2.816 4.031 0.122 1.056-0.819 2.036-2.096 2.185-0.098 0.012-0.212 0.019-0.327 0.019h-0zM3.447 10.257c-0.917 0.105-1.535 3.065-1.426 4.017 0.090 0.767 0.974 1.326 1.986 1.208 1.003-0.117 1.747-0.848 1.657-1.631-0.108-0.925-1.334-3.595-2.217-3.595z"></path>
<path d="M3.761 17.5c-0 0-0 0-0 0-0.138 0-0.25-0.112-0.25-0.25 0-0.023 0.003-0.046 0.009-0.067l-0 0.002c0.449-1.655-0.038-4.361-0.043-4.388-0.003-0.014-0.004-0.029-0.004-0.045 0-0.122 0.088-0.224 0.203-0.245l0.002-0c0.137-0.026 0.266 0.065 0.291 0.201 0.021 0.115 0.512 2.846 0.033 4.609-0.030 0.107-0.126 0.184-0.241 0.184v0z"></path>
</symbol>
<symbol id="github" viewBox="0 0 32 32">
<path d="M20.15 28.931c-0.842 0.35-1.82 0.553-2.845 0.553-0.192 0-0.382-0.007-0.57-0.021l0.025 0.002c-0.178 0.016-0.386 0.025-0.595 0.025-1.005 0-1.963-0.205-2.832-0.576l0.047 0.018c-0.286-0.232-0.467-0.584-0.467-0.977 0-0.004 0-0.008 0-0.012v0.001c0-0.371-0.013-1.344-0.020-2.639-4.318 0.938-5.229-2.082-5.229-2.082-0.297-0.957-0.907-1.744-1.708-2.261l-0.016-0.010c-1.408-0.963 0.106-0.943 0.106-0.943 1.021 0.145 1.878 0.745 2.37 1.585l0.008 0.015c0.573 1.029 1.655 1.713 2.896 1.713 0.596 0 1.155-0.158 1.637-0.433l-0.016 0.009c0.076-0.819 0.439-1.541 0.986-2.076l0.001-0.001c-3.446-0.391-7.070-1.723-7.070-7.67-0-0.026-0.001-0.057-0.001-0.088 0-1.576 0.607-3.011 1.601-4.082l-0.004 0.004c-0.202-0.554-0.319-1.193-0.319-1.86 0-0.813 0.174-1.585 0.486-2.282l-0.014 0.035s1.302-0.418 4.268 1.592c1.165-0.332 2.503-0.523 3.886-0.523s2.721 0.191 3.99 0.548l-0.104-0.025c2.964-2.009 4.264-1.592 4.264-1.592 0.299 0.662 0.474 1.435 0.474 2.248 0 0.666-0.117 1.304-0.331 1.896l0.012-0.039c0.989 1.066 1.596 2.499 1.596 4.074 0 0.033-0 0.065-0.001 0.097l0-0.005c0 5.962-3.629 7.276-7.087 7.66 0.657 0.667 1.063 1.583 1.063 2.594 0 0.098-0.004 0.195-0.011 0.292l0.001-0.013c0 2.075-0.019 3.751-0.019 4.259 0.001 0.018 0.002 0.039 0.002 0.060 0 0.378-0.179 0.713-0.457 0.927l-0.003 0.002z"></path>
</symbol>


<symbol id="close" viewBox="0 0 32 32">
<path stroke-linejoin="round" stroke-linecap="round" stroke-miterlimit="4" stroke-width="2.5" d="M24 8l-16 16"></path>
<path stroke-linejoin="round" stroke-linecap="round" stroke-miterlimit="4" stroke-width="2.5" d="M8 8l16 16"></path>
</symbol>

<symbol id="burger-button" viewBox="0 0 47 32">
<path stroke-linejoin="miter" stroke-linecap="round" stroke-miterlimit="4" stroke-width="2.9091" d="M8.537 5.333h36.553"></path>
<path stroke-linejoin="miter" stroke-linecap="round" stroke-miterlimit="4" stroke-width="2.9091" d="M8.537 24.727h36.553"></path>
<path stroke-linejoin="miter" stroke-linecap="round" stroke-miterlimit="4" stroke-width="2.9091" d="M19.668 15.030h25.423"></path>
</symbol>
</defs></svg>